<?xml version="1.0" encoding="utf-8"?>
<!-- Generator: Adobe Illustrator 16.0.0, SVG Export Plug-In . SVG Version: 6.00 Build 0)  -->
<!DOCTYPE svg PUBLIC "-//W3C//DTD SVG 1.1//EN" "http://www.w3.org/Graphics/SVG/1.1/DTD/svg11.dtd">
<svg version="1.1" id="Layer_1" xmlns="http://www.w3.org/2000/svg" xmlns:xlink="http://www.w3.org/1999/xlink" x="0px" y="0px"
	 width="50px" height="50px" viewBox="0 0 50 50" enable-background="new 0 0 50 50" xml:space="preserve">
<path d="M0,7v36h50V7H0z M48,9v2.506L28.336,28.645c-1.408,1.227-2.802,1.357-3.336,1.357s-1.926-0.133-3.336-1.359
	C20.264,27.423,4.123,13.355,2,11.505V9H48z M48,14.153v21.812L34.878,25.59L48,14.153z M15.121,25.588L2,35.964V14.153
	C4.773,16.57,10.72,21.753,15.121,25.588z M2,41v-2.486l14.654-11.59c1.913,1.667,3.327,2.898,3.699,3.223
	c1.918,1.67,3.888,1.852,4.646,1.852c0.759,0,2.729-0.182,4.646-1.85l3.698-3.223L48,38.514V41H2z"/>
</svg>
